HIERARCHY
ROOT Root
{
  OFFSET 0.0 0.0 0.0
  CHANNELS 6 Xposition Yposition Zposition Zrotation Yrotation Xrotation
  JOINT Hips
  {
    OFFSET 0.0 100.0 0.0
    CHANNELS 6 Xposition Yposition Zposition Zrotation Yrotation Xrotation
    JOINT Spine1
    {
      OFFSET 5.003913 -0.037094 -0.013727
      CHANNELS 3 Zrotation Yrotation Xrotation
      JOINT Spine2
      {
        OFFSET 7.125363 -1e-06 0.0
        CHANNELS 3 Zrotation Yrotation Xrotation
        JOINT Chest
        {
          OFFSET 7.594027 1e-06 0.0
          CHANNELS 3 Zrotation Yrotation Xrotation
          JOINT Neck1
          {
            OFFSET 26.313086 -0.460272 -0.181672
            CHANNELS 3 Zrotation Yrotation Xrotation
            JOINT Neck2
            {
              OFFSET 8.045911 0.0 0.0
              CHANNELS 3 Zrotation Yrotation Xrotation
              JOINT Head
              {
                OFFSET 6.432774 0.0 0.0
                CHANNELS 3 Zrotation Yrotation Xrotation
                JOINT HeadEnd
                {
                  OFFSET 16.169773 0.06451 0.00362
                  CHANNELS 3 Zrotation Yrotation Xrotation
                }
                JOINT Jaw
                {
                  OFFSET 0.108741 3.12938 0.002639
                  CHANNELS 3 Zrotation Yrotation Xrotation
                }
                JOINT LeftEye
                {
                  OFFSET 4.45173 8.166359 3.206392
                  CHANNELS 3 Zrotation Yrotation Xrotation
                }
                JOINT RightEye
                {
                  OFFSET 4.436895 8.135758 -3.222429
                  CHANNELS 3 Zrotation Yrotation Xrotation
                }
              }
            }
          }
          JOINT LeftShoulder
          {
            OFFSET 23.218927 5.195579 1.621656
            CHANNELS 3 Zrotation Yrotation Xrotation
            JOINT LeftArm
            {
              OFFSET 15.902118 2e-06 -2e-06
              CHANNELS 3 Zrotation Yrotation Xrotation
              JOINT LeftForeArm
              {
                OFFSET 28.739307 0.0 -1e-06
                CHANNELS 3 Zrotation Yrotation Xrotation
                JOINT LeftHand
                {
                  OFFSET 27.093981 -4e-06 0.0
                  CHANNELS 3 Zrotation Yrotation Xrotation
                  JOINT LeftHandThumb1
                  {
                    OFFSET 2.276781 3.380274 0.83384
                    CHANNELS 3 Zrotation Yrotation Xrotation
                    JOINT LeftHandThumb2
                    {
                      OFFSET 4.705309 -1e-06 -1e-06
                      CHANNELS 3 Zrotation Yrotation Xrotation
                      JOINT LeftHandThumb3
                      {
                        OFFSET 2.798515 0.0 3e-06
                        CHANNELS 3 Zrotation Yrotation Xrotation
                        JOINT LeftHandThumbEnd
                        {
                          OFFSET 3.180793 4e-06 -4e-06
                          CHANNELS 3 Zrotation Yrotation Xrotation
                        }
                      }
                    }
                  }
                  JOINT LeftHandIndex1
                  {
                    OFFSET 3.247786 2.352677 0.137192
                    CHANNELS 3 Zrotation Yrotation Xrotation
                    JOINT LeftHandIndex2
                    {
                      OFFSET 6.367095 1e-06 0.0
                      CHANNELS 3 Zrotation Yrotation Xrotation
                      JOINT LeftHandIndex3
                      {
                        OFFSET 3.662364 0.0 0.0
                        CHANNELS 3 Zrotation Yrotation Xrotation
                        JOINT LeftHandIndex4
                        {
                          OFFSET 2.329242 4e-06 -4e-06
                          CHANNELS 3 Zrotation Yrotation Xrotation
                          JOINT LeftHandIndexEnd
                          {
                            OFFSET 2.767823 1e-06 0.0
                            CHANNELS 3 Zrotation Yrotation Xrotation
                          }
                        }
                      }
                    }
                  }
                  JOINT LeftHandMiddle1
                  {
                    OFFSET 3.163612 0.945023 -0.406112
                    CHANNELS 3 Zrotation Yrotation Xrotation
                    JOINT LeftHandMiddle2
                    {
                      OFFSET 6.276789 3e-06 0.0
                      CHANNELS 3 Zrotation Yrotation Xrotation
                      JOINT LeftHandMiddle3
                      {
                        OFFSET 4.35652 -1e-06 4e-06
                        CHANNELS 3 Zrotation Yrotation Xrotation
                        JOINT LeftHandMiddle4
                        {
                          OFFSET 2.996877 0.0 8e-06
                          CHANNELS 3 Zrotation Yrotation Xrotation
                          JOINT LeftHandMiddleEnd
                          {
                            OFFSET 2.323256 3e-06 -4e-06
                            CHANNELS 3 Zrotation Yrotation Xrotation
                          }
                        }
                      }
                    }
                  }
                  JOINT LeftHandRing1
                  {
                    OFFSET 2.882606 -0.309162 0.107445
                    CHANNELS 3 Zrotation Yrotation Xrotation
                    JOINT LeftHandRing2
                    {
                      OFFSET 6.033198 0.0 4e-06
                      CHANNELS 3 Zrotation Yrotation Xrotation
                      JOINT LeftHandRing3
                      {
                        OFFSET 4.350578 3e-06 0.0
                        CHANNELS 3 Zrotation Yrotation Xrotation
                        JOINT LeftHandRing4
                        {
                          OFFSET 2.651321 2e-06 -7e-06
                          CHANNELS 3 Zrotation Yrotation Xrotation
                          JOINT LeftHandRingEnd
                          {
                            OFFSET 1.937663 1e-06 -4e-06
                            CHANNELS 3 Zrotation Yrotation Xrotation
                          }
                        }
                      }
                    }
                  }
                  JOINT LeftHandPinky1
                  {
                    OFFSET 2.865315 -1.525436 0.575687
                    CHANNELS 3 Zrotation Yrotation Xrotation
                    JOINT LeftHandPinky2
                    {
                      OFFSET 5.54936 1e-06 -8e-06
                      CHANNELS 3 Zrotation Yrotation Xrotation
                      JOINT LeftHandPinky3
                      {
                        OFFSET 3.070974 0.0 -4e-06
                        CHANNELS 3 Zrotation Yrotation Xrotation
                        JOINT LeftHandPinky4
                        {
                          OFFSET 1.549672 1e-06 0.0
                          CHANNELS 3 Zrotation Yrotation Xrotation
                          JOINT LeftHandPinkyEnd
                          {
                            OFFSET 1.952123 0.0 0.0
                            CHANNELS 3 Zrotation Yrotation Xrotation
                          }
                        }
                      }
                    }
                  }
                }
              }
            }
          }
          JOINT RightShoulder
          {
            OFFSET 23.161716 5.296122 -1.380114
            CHANNELS 3 Zrotation Yrotation Xrotation
            JOINT RightArm
            {
              OFFSET -16.027195 -2e-06 1.1e-05
              CHANNELS 3 Zrotation Yrotation Xrotation
              JOINT RightForeArm
              {
                OFFSET -28.736639 4e-06 2e-06
                CHANNELS 3 Zrotation Yrotation Xrotation
                JOINT RightHand
                {
                  OFFSET -27.133619 6e-06 0.0
                  CHANNELS 3 Zrotation Yrotation Xrotation
                  JOINT RightHandThumb1
                  {
                    OFFSET -2.274328 -3.351035 -0.83067
                    CHANNELS 3 Zrotation Yrotation Xrotation
                    JOINT RightHandThumb2
                    {
                      OFFSET -4.703594 -3e-06 2e-06
                      CHANNELS 3 Zrotation Yrotation Xrotation
                      JOINT RightHandThumb3
                      {
                        OFFSET -2.794935 -4e-06 -3e-06
                        CHANNELS 3 Zrotation Yrotation Xrotation
                        JOINT RightHandThumbEnd
                        {
                          OFFSET -3.183852 4e-06 1e-06
                          CHANNELS 3 Zrotation Yrotation Xrotation
                        }
                      }
                    }
                  }
                  JOINT RightHandIndex1
                  {
                    OFFSET -3.253496 -2.33755 -0.127667
                    CHANNELS 3 Zrotation Yrotation Xrotation
                    JOINT RightHandIndex2
                    {
                      OFFSET -6.344434 0.0 0.0
                      CHANNELS 3 Zrotation Yrotation Xrotation
                      JOINT RightHandIndex3
                      {
                        OFFSET -3.654871 0.0 -8e-06
                        CHANNELS 3 Zrotation Yrotation Xrotation
                        JOINT RightHandIndex4
                        {
                          OFFSET -2.327586 -1e-06 0.0
                          CHANNELS 3 Zrotation Yrotation Xrotation
                          JOINT RightHandIndexEnd
                          {
                            OFFSET -2.770001 3e-06 8e-06
                            CHANNELS 3 Zrotation Yrotation Xrotation
                          }
                        }
                      }
                    }
                  }
                  JOINT RightHandMiddle1
                  {
                    OFFSET -3.168223 -0.944764 0.411762
                    CHANNELS 3 Zrotation Yrotation Xrotation
                    JOINT RightHandMiddle2
                    {
                      OFFSET -6.266691 -1e-06 -4e-06
                      CHANNELS 3 Zrotation Yrotation Xrotation
                      JOINT RightHandMiddle3
                      {
                        OFFSET -4.348901 0.0 0.0
                        CHANNELS 3 Zrotation Yrotation Xrotation
                        JOINT RightHandMiddle4
                        {
                          OFFSET -3.00024 2e-06 -4e-06
                          CHANNELS 3 Zrotation Yrotation Xrotation
                          JOINT RightHandMiddleEnd
                          {
                            OFFSET -2.321477 -4e-06 -4e-06
                            CHANNELS 3 Zrotation Yrotation Xrotation
                          }
                        }
                      }
                    }
                  }
                  JOINT RightHandRing1
                  {
                    OFFSET -2.885654 0.293261 -0.119232
                    CHANNELS 3 Zrotation Yrotation Xrotation
                    JOINT RightHandRing2
                    {
                      OFFSET -6.032835 -1e-06 -4e-06
                      CHANNELS 3 Zrotation Yrotation Xrotation
                      JOINT RightHandRing3
                      {
                        OFFSET -4.33881 0.0 -4e-06
                        CHANNELS 3 Zrotation Yrotation Xrotation
                        JOINT RightHandRing4
                        {
                          OFFSET -2.654903 -4e-06 -4e-06
                          CHANNELS 3 Zrotation Yrotation Xrotation
                          JOINT RightHandRingEnd
                          {
                            OFFSET -1.935122 0.0 4e-06
                            CHANNELS 3 Zrotation Yrotation Xrotation
                          }
                        }
                      }
                    }
                  }
                  JOINT RightHandPinky1
                  {
                    OFFSET -2.866241 1.503904 -0.60527
                    CHANNELS 3 Zrotation Yrotation Xrotation
                    JOINT RightHandPinky2
                    {
                      OFFSET -5.553177 -2e-06 0.0
                      CHANNELS 3 Zrotation Yrotation Xrotation
                      JOINT RightHandPinky3
                      {
                        OFFSET -3.062664 -1e-06 -4e-06
                        CHANNELS 3 Zrotation Yrotation Xrotation
                        JOINT RightHandPinky4
                        {
                          OFFSET -1.546529 2e-06 4e-06
                          CHANNELS 3 Zrotation Yrotation Xrotation
                          JOINT RightHandPinkyEnd
                          {
                            OFFSET -1.952341 0.0 -4e-06
                            CHANNELS 3 Zrotation Yrotation Xrotation
                          }
                        }
                      }
                    }
                  }
                }
              }
            }
          }
        }
      }
    }
    JOINT LeftLeg
    {
      OFFSET -8.443107 2.567604 10.043214
      CHANNELS 3 Zrotation Yrotation Xrotation
      JOINT LeftShin
      {
        OFFSET 43.229198 1e-06 -1e-06
        CHANNELS 3 Zrotation Yrotation Xrotation
        JOINT LeftFoot
        {
          OFFSET 42.298611 1e-06 1e-06
          CHANNELS 3 Zrotation Yrotation Xrotation
          JOINT LeftToeBase
          {
            OFFSET 14.165858 1e-06 0.0
            CHANNELS 3 Zrotation Yrotation Xrotation
            JOINT LeftToeEnd
            {
              OFFSET 6.7141 -0.234461 0.0
              CHANNELS 3 Zrotation Yrotation Xrotation
            }
          }
        }
      }
    }
    JOINT RightLeg
    {
      OFFSET -8.303923 2.592729 -10.047278
      CHANNELS 3 Zrotation Yrotation Xrotation
      JOINT RightShin
      {
        OFFSET -43.369682 0.0 1e-06
        CHANNELS 3 Zrotation Yrotation Xrotation
        JOINT RightFoot
        {
          OFFSET -42.260784 4e-06 2e-06
          CHANNELS 3 Zrotation Yrotation Xrotation
          JOINT RightToeBase
          {
            OFFSET -14.222245 -2e-06 -1e-06
            CHANNELS 3 Zrotation Yrotation Xrotation
            JOINT RightToeEnd
            {
              OFFSET -6.660062 0.232574 -2e-06
              CHANNELS 3 Zrotation Yrotation Xrotation
            }
          }
        }
      }
    }
  }
}
MOTION
Frames: 4
Frame Time: 0.03333333333333333
0.0 0.0 0.0 0.0 -0.0 0.0 -0.627097 48.939575 6.31966 95.053207 -56.299164 88.51384 14.456237 0.42642 -0.523228 -4.464389 -0.270809 -0.63809 19.86167 -0.130746 -3.104046 24.840437 -4.401598 2.187665 -2.700639 0.20866 -1.487606 -19.82836 -2.608516 -2.218402 6e-06 0.0 0.0 -0.235742 0.101405 0.000819 -0.160425 0.267206 0.027057 -0.156663 -0.060719 -0.02214 -23.025826 -69.169876 24.756481 88.200996 -3.486041 -27.170477 8.095939 -1.453133 -0.070163 35.8102 83.682137 44.525616 17.636631 -26.322733 52.411194 -19.466661 -14.395596 29.410389 1e-06 -8.774821 -3e-06 15.924697 -17.534504 6.314836 -0.609776 -1.795653 -3.889328 -4.807089 -11.046811 -2.93785 3e-06 -20.976019 -0.0 -5.01997 -25.033556 -4.031881 6e-06 -2e-06 0.0 -10.634534 -5.686971 -3.565588 10.573272 -17.922951 -3.113899 2e-06 -13.821211 1e-06 -0.501779 -31.181505 -4.027015 -10.843991 -58.914227 6.870897 -13.982712 -7.150199 -2.875041 13.772727 -8.401491 -3.218242 0.347732 -34.211555 0.771656 -0.963029 -17.73337 2.621019 -0.0 -0.0 0.0 -17.346418 -20.095221 -4.201782 21.757557 -1.638374 3.866428 1e-06 -6.338824 1e-06 -1.69759 -22.591747 -6.194007 -0.0 -4e-06 -2e-06 163.194336 -66.686096 19.258938 87.524071 -4.088068 -34.364285 6.170338 -0.48497 -0.041075 70.169556 72.750015 73.23246 22.182108 -20.375891 49.933319 -16.701807 -16.743528 28.476528 -3e-06 -12.690601 -0.0 15.981674 -16.776428 2.768314 -0.10592 -1.513856 -4.275881 -5.03904 -5.612871 -2.953557 4e-06 -11.020525 -2e-06 -6.111297 -15.895334 -3.84047 -1e-06 -2e-06 -0.0 -10.283369 -5.680288 -4.341837 11.028292 -11.302404 -2.372632 -1.384269 -14.238577 -6.32012 -0.625438 -26.924185 -3.8276 -4.525087 -48.70797 -3.74797 -13.708524 -7.363476 -3.720938 18.141148 -14.052738 -3.242674 6e-06 -18.787266 -2e-06 -0.429711 -8.456043 2.555503 -0.0 2e-06 -0.0 -15.923532 -20.094482 -5.473583 30.41921 -7.190823 1.735927 3e-06 -8.162922 -0.0 -1.861903 -22.861467 -6.167941 -1e-06 -2e-06 -1e-06 125.521751 -0.160405 4.886981 107.267044 0.030527 0.266739 -77.212303 16.121244 -6.752318 -20.459867 1.5385 1.612123 -0.999999 0.0 0.0 -52.003235 -12.222014 3.157746 103.977119 -1.890155 -0.044833 -65.790565 7.522505 -4.419916 -18.339378 0.775486 1.699911 -1.000003 -0.0 0.0 
0.0 0.0 0.0 0.0 -0.0 0.0 -0.38698 49.016201 6.448404 94.756805 -56.158215 88.688835 14.456005 0.563732 -0.503402 -4.549104 -0.172131 -0.544151 20.022446 -0.124117 -2.929921 24.88513 -4.517609 2.020197 -2.704528 0.207113 -1.458887 -19.664486 -2.638069 -2.270149 6e-06 0.0 -0.0 -0.243024 0.049633 0.00011 -0.131806 0.20808 0.025432 -0.131533 -0.101769 -0.025832 -22.841631 -69.384438 24.850439 88.40683 -3.35808 -28.071981 7.904943 -1.384857 -0.067947 42.585388 82.726433 50.558636 17.636625 -26.322729 52.411209 -19.466665 -14.395602 29.410395 -1e-06 -8.774824 -2e-06 15.967966 -17.668406 6.249001 -0.609776 -1.795654 -3.889329 -4.807089 -11.046811 -2.937851 5e-06 -20.976021 -1e-06 -5.01997 -25.03356 -4.031885 6e-06 -0.0 -0.0 -10.634536 -5.686971 -3.565588 10.573276 -17.922951 -3.113902 2e-06 -13.821208 0.0 -0.501777 -31.181505 -4.027017 -10.763367 -59.076675 6.777698 -13.982716 -7.150198 -2.875042 13.772732 -8.401491 -3.218242 0.347734 -34.211552 0.771654 -0.963028 -17.733368 2.621019 0.0 -0.0 -0.0 -17.346422 -20.095219 -4.201783 21.757565 -1.638375 3.866427 1e-06 -6.338824 1e-06 -1.697589 -22.591743 -6.194008 0.0 -4e-06 -2e-06 163.310272 -66.634995 19.405333 87.548347 -4.038717 -34.311943 5.720975 -0.411102 -0.035242 70.078354 72.525169 72.941811 22.182117 -20.3759 49.933334 -16.701817 -16.74353 28.476536 -4e-06 -12.690603 -1e-06 15.803562 -16.679268 2.845741 -0.105919 -1.513856 -4.275883 -5.039042 -5.612872 -2.953557 4e-06 -11.020525 -2e-06 -6.111299 -15.89533 -3.840472 -0.0 -2e-06 0.0 -10.283371 -5.680288 -4.341839 11.028296 -11.302404 -2.372633 -1.384268 -14.238583 -6.320122 -0.625437 -26.924187 -3.827601 -4.54916 -48.772518 -3.625341 -13.708527 -7.363476 -3.72094 18.141153 -14.052738 -3.242675 6e-06 -18.78727 -2e-06 -0.429712 -8.456043 2.555504 0.0 2e-06 0.0 -15.923536 -20.094482 -5.473587 30.419218 -7.190824 1.735925 3e-06 -8.162925 -0.0 -1.861905 -22.861467 -6.167941 -0.0 -3e-06 -1e-06 125.826828 0.040678 4.890653 107.099152 -0.005989 0.242083 -77.236137 15.912047 -6.639504 -20.19783 1.561842 1.571292 -0.999999 0.0 1e-06 -51.678799 -12.320415 3.022558 103.608521 -1.966514 -0.053655 -65.559875 7.628098 -4.375411 -17.976118 0.747998 1.726038 -1.000003 -0.0 0.0 
0.0 0.0 0.0 0.0 -0.0 0.0 -0.18979 49.034561 6.502459 94.607735 -56.049999 88.779594 14.418859 0.625561 -0.480999 -4.601528 -0.054189 -0.444973 20.171179 -0.141045 -2.811635 24.927931 -4.553209 1.907967 -2.704007 0.158709 -1.449517 -19.624405 -2.738603 -2.314204 6e-06 0.0 0.0 -0.237345 0.023495 0.00091 -0.144249 0.172424 0.0195 -0.136703 -0.116607 -0.022908 -22.325506 -69.376076 24.592903 88.510208 -3.181267 -28.572369 7.845504 -1.305482 -0.064048 43.663109 82.104118 51.083317 17.636625 -26.322737 52.411201 -19.466665 -14.395598 29.410398 -3e-06 -8.774822 -1e-06 15.998404 -17.74061 6.170382 -0.609776 -1.795654 -3.889328 -4.807088 -11.046813 -2.937851 5e-06 -20.976019 -1e-06 -5.01997 -25.033562 -4.031882 6e-06 0.0 1e-06 -10.634536 -5.686972 -3.565588 10.573275 -17.922955 -3.113902 2e-06 -13.821211 1e-06 -0.501777 -31.181507 -4.027016 -10.63346 -59.109074 6.662391 -13.982714 -7.150198 -2.875042 13.772731 -8.401493 -3.218243 0.347733 -34.211559 0.771655 -0.963029 -17.733372 2.62102 0.0 -1e-06 -0.0 -17.346422 -20.095222 -4.20178 21.757561 -1.638375 3.866427 1e-06 -6.338827 1e-06 -1.697589 -22.591749 -6.194007 -0.0 -5e-06 -2e-06 163.597656 -66.609016 19.387476 87.358223 -3.984758 -34.230301 5.479388 -0.376555 -0.034055 70.62468 72.42511 73.586922 22.182106 -20.375898 49.933327 -16.701813 -16.743528 28.476534 -4e-06 -12.690601 0.0 15.791714 -16.569118 2.863816 -0.105919 -1.513855 -4.275882 -5.039041 -5.612873 -2.953557 4e-06 -11.020525 -2e-06 -6.111297 -15.895336 -3.840471 -1e-06 -0.0 -0.0 -10.283369 -5.680287 -4.341839 11.028295 -11.302406 -2.372634 -1.384268 -14.238583 -6.320123 -0.625438 -26.924194 -3.827603 -4.533752 -48.795593 -3.56886 -13.708524 -7.363476 -3.72094 18.14115 -14.052739 -3.242676 6e-06 -18.78727 -2e-06 -0.429712 -8.456044 2.555504 -0.0 1e-06 -0.0 -15.923534 -20.094482 -5.473586 30.41921 -7.190825 1.735923 3e-06 -8.162927 -0.0 -1.861902 -22.861469 -6.167941 0.0 -3e-06 -1e-06 126.019478 0.249235 4.872674 107.055916 -0.020612 0.237874 -77.267494 15.699368 -6.570937 -20.183887 1.563773 1.556672 -0.999998 -1e-06 1e-06 -51.472279 -12.433565 3.022266 103.44072 -1.997152 -0.028134 -65.516411 7.92451 -4.427605 -17.733027 0.729156 1.742895 -1.000003 -0.0 -0.0 
0.0 0.0 0.0 0.0 -0.0 0.0 -0.050318 49.020027 6.486163 94.500175 -56.056519 88.930626 14.367805 0.660917 -0.465158 -4.635177 0.00834 -0.392874 20.201874 -0.092937 -2.774908 24.941803 -4.5614 1.850938 -2.696324 0.132834 -1.455096 -19.632555 -2.806293 -2.302135 6e-06 0.0 -0.0 -0.234073 0.012401 0.000784 -0.191702 0.160237 0.006631 -0.172739 -0.127073 -0.013113 -21.87812 -69.297661 24.298906 88.553444 -3.054688 -28.816494 7.869579 -1.255838 -0.064855 43.331337 81.763222 50.752476 17.636621 -26.322721 52.411194 -19.466656 -14.395596 29.410385 -2e-06 -8.77482 -2e-06 15.959826 -17.733532 6.152745 -0.609776 -1.795654 -3.889328 -4.807088 -11.046806 -2.937851 5e-06 -20.976011 -2e-06 -5.019968 -25.033546 -4.031881 6e-06 -0.0 -1e-06 -10.634531 -5.686969 -3.565587 10.573271 -17.922945 -3.113901 2e-06 -13.821203 0.0 -0.501777 -31.181488 -4.027017 -10.507065 -59.098289 6.525774 -13.982712 -7.150197 -2.875042 13.772726 -8.401489 -3.218242 0.347733 -34.211536 0.771654 -0.963029 -17.733362 2.621019 0.0 0.0 0.0 -17.346415 -20.095213 -4.201783 21.757555 -1.638373 3.866427 1e-06 -6.338821 1e-06 -1.697589 -22.591734 -6.194006 0.0 -8e-06 -2e-06 163.686005 -66.595924 19.419212 87.156258 -4.096801 -34.096233 5.523458 -0.338271 -0.035002 71.262421 72.440132 74.509529 22.182121 -20.375893 49.933315 -16.701813 -16.74353 28.47653 -3e-06 -12.690602 -1e-06 15.845295 -16.5077 2.885848 -0.105919 -1.513856 -4.275881 -5.039042 -5.612871 -2.953557 4e-06 -11.020525 -2e-06 -6.111298 -15.895338 -3.840471 -0.0 -0.0 -0.0 -10.283371 -5.680288 -4.341838 11.028294 -11.302402 -2.372633 -1.384269 -14.238581 -6.320121 -0.625439 -26.924189 -3.827601 -4.507586 -48.893955 -3.484767 -13.708526 -7.363477 -3.720938 18.141148 -14.052738 -3.242675 6e-06 -18.78727 -2e-06 -0.429712 -8.456041 2.555504 0.0 1e-06 -0.0 -15.923536 -20.094484 -5.473584 30.41921 -7.190825 1.735927 4e-06 -8.162925 -1e-06 -1.861903 -22.861469 -6.167942 -1e-06 -4e-06 -1e-06 125.990288 0.463626 4.93495 107.151375 -0.012329 0.243927 -77.484993 15.530445 -6.551362 -20.398148 1.5557 1.561314 -0.999998 0.0 1e-06 -51.449265 -12.595858 3.033976 103.44455 -1.965914 0.00047 -65.668427 8.154017 -4.632586 -17.830252 0.727675 1.749424 -1.000001 -0.0 -0.0 
